<svg xmlns="http://www.w3.org/2000/svg" xmlns:xlink="http://www.w3.org/1999/xlink" viewBox="0 0 774.6 588.93"><defs><style>.cls-1,.cls-28{fill:none;}.cls-2{fill:#fccc2a;}.cls-3{fill:#a3a2a1;}.cls-3,.cls-6{opacity:0.25;}.cls-4{fill:#f4f4f4;}.cls-5{fill:#dcdcdc;}.cls-6{fill:#a3a1a0;}.cls-7,.cls-9{fill:#5c5b5b;}.cls-8{fill:#b0b1ae;}.cls-9{opacity:0.35;}.cls-10{fill:#a8a9ad;}.cls-11{fill:#d8d8d8;}.cls-12{fill:#e2e0e0;}.cls-13{fill:#3e479d;}.cls-14{fill:#dcdcd8;}.cls-15{fill:#292865;}.cls-16{fill:#2f377d;}.cls-17{fill:#fcf9ce;}.cls-18{isolation:isolate;}.cls-19{clip-path:url(#clip-path);}.cls-20{fill:#d81f26;}.cls-21{fill:#a41e21;}.cls-22{fill:#841618;}.cls-23{clip-path:url(#clip-path-2);}.cls-24{fill:#c5812a;}.cls-25{fill:#feda34;}.cls-26{fill:#6b6b6a;opacity:0.07;}.cls-27{fill:#fddd69;}.cls-28{stroke:#c5812a;stroke-miterlimit:10;stroke-width:1.8px;}.cls-29{fill:#e9a822;}.cls-30{clip-path:url(#clip-path-3);}.cls-31{fill:#e9a824;}.cls-32{clip-path:url(#clip-path-4);}.cls-33{clip-path:url(#clip-path-5);}</style><clipPath id="clip-path"><polygon class="cls-1" points="310.78 372.76 309.86 345.59 473.23 248.06 474.15 275.22 310.78 372.76"/></clipPath><clipPath id="clip-path-2"><polygon class="cls-1" points="98.35 151.1 220.78 88.95 361.06 168.94 238.63 231.1 98.35 151.1"/></clipPath><clipPath id="clip-path-3"><path class="cls-2" d="M378.1,115.82c-7.46,0-13.5-3.41-13.5-7.6v82.91c0,3.3,3.74,6.1,9,7.15l-4.38,145.66c0,2.33,3.91,4.22,8.74,4.22s8.74-1.89,8.74-4.22l-3.51-145.76c5-1.13,8.45-3.86,8.45-7.05V108.22C391.6,112.41,385.56,115.82,378.1,115.82Z"/></clipPath><clipPath id="clip-path-4"><path class="cls-2" d="M377.69,353.16c-7.23,0-13.09-3.36-13.09-7.5V372c0,4.14,5.86,7.5,13.09,7.5s13.1-3.36,13.1-7.5V345.66C390.79,349.8,384.93,353.16,377.69,353.16Z"/></clipPath><clipPath id="clip-path-5"><path class="cls-2" d="M377.92,386.49c-11,0-19.92-5.21-19.92-11.63v11.63s4.09,9.77,19.69,9.71,19.74-9.29,19.74-9.29l.4-12.05C397.83,381.28,388.92,386.49,377.92,386.49Z"/></clipPath></defs><g id="document"><g id="Layer_55" data-name="Layer 55"><polygon class="cls-3" points="774.6 406.88 460.67 588.93 0 326.6 323.88 147.94 774.6 406.88"/></g><g id="base"><polygon class="cls-4" points="772.03 403.92 457.45 585.19 2.77 325.07 323.88 147.94 772.03 403.92"/></g><g id="text"><polygon class="cls-5" points="717.75 389.99 435.67 553.1 439.5 555.52 722.14 392.56 717.75 389.99"/><polygon class="cls-5" points="708.75 383.97 426.69 547.07 430.57 549.53 712.23 386.3 708.75 383.97"/><polygon class="cls-5" points="699.23 378.17 417.16 541.29 420.98 543.71 703.62 380.75 699.23 378.17"/><polygon class="cls-5" points="690.23 372.16 408.17 535.26 412.06 537.72 693.71 374.48 690.23 372.16"/><polygon class="cls-5" points="678.46 367.33 396.38 530.45 400.21 532.87 682.85 369.91 678.46 367.33"/><polygon class="cls-5" points="669.46 361.32 387.4 524.42 391.29 526.88 672.94 363.65 669.46 361.32"/><polygon class="cls-5" points="660.55 356.65 378.48 519.77 382.3 522.19 664.94 359.23 660.55 356.65"/><polygon class="cls-5" points="651.55 350.64 369.5 513.74 373.38 516.2 655.03 352.96 651.55 350.64"/><polygon class="cls-5" points="642.39 345.82 360.32 508.94 364.15 511.35 646.79 348.39 642.39 345.82"/><polygon class="cls-5" points="633.4 339.8 351.34 502.9 355.22 505.36 636.88 342.13 633.4 339.8"/><polygon class="cls-5" points="622.62 334.16 340.54 497.28 344.37 499.7 627.01 336.74 622.62 334.16"/><polygon class="cls-5" points="613.62 328.15 331.56 491.25 335.44 493.71 617.1 330.48 613.62 328.15"/><polygon class="cls-5" points="565.27 301.21 283.2 464.33 287.02 466.75 569.66 303.79 565.27 301.21"/><polygon class="cls-5" points="556.27 295.2 274.21 458.3 278.1 460.75 559.75 297.52 556.27 295.2"/><polygon class="cls-5" points="546.75 289.4 264.68 452.52 268.5 454.94 551.14 291.98 546.75 289.4"/><polygon class="cls-5" points="537.76 283.39 255.7 446.49 259.58 448.94 541.24 285.71 537.76 283.39"/><polygon class="cls-5" points="525.98 278.56 243.91 441.68 247.73 444.1 530.37 281.14 525.98 278.56"/><polygon class="cls-5" points="516.99 272.55 234.93 435.65 238.81 438.11 520.47 274.88 516.99 272.55"/><polygon class="cls-5" points="508.07 267.88 226 431 229.82 433.42 512.47 270.46 508.07 267.88"/><polygon class="cls-5" points="499.08 261.87 217.02 424.97 220.9 427.43 502.56 264.19 499.08 261.87"/><polygon class="cls-5" points="489.92 257.05 207.85 420.16 211.67 422.58 494.31 259.62 489.92 257.05"/><polygon class="cls-5" points="480.92 251.03 198.86 414.13 202.75 416.59 484.4 253.36 480.92 251.03"/><polygon class="cls-5" points="470.14 245.39 188.07 408.51 191.89 410.93 474.53 247.97 470.14 245.39"/><polygon class="cls-5" points="461.14 239.38 179.08 402.48 182.97 404.94 464.62 241.7 461.14 239.38"/></g></g><g id="mag_glass_lowr_part" data-name="mag glass lowr part"><g id="shadow"><path class="cls-6" d="M667.77,425.55a31.64,31.64,0,0,1-.8,4.57v0a35.87,35.87,0,0,1-2.52,7c-10.93,22.42-46,36.36-85.67,32.26-39.27-4.05-70.45-24.44-77-48.26h0c-.08-.27-.16-.53-.22-.79a34.43,34.43,0,0,1-.9-12c3-28.95,42.83-48.57,89-43.81S670.76,396.59,667.77,425.55Z"/><polygon class="cls-6" points="353.4 549.53 370.85 554.19 538.19 456.39 524.46 448.94 353.4 549.53"/></g><path class="cls-7" d="M650.18,400.8,643.47,403c-11.53-15.83-38.57-26.95-70.09-26.95-30,0-56,10.09-68.35,24.74l-7.52-1-.17,20.06c0,.09,0,.19,0,.29s0,.21,0,.31v.95h0a27.16,27.16,0,0,0,1.89,8.63c.09.21.18.42.28.63v0c8.16,19.24,38.12,33.51,73.85,33.51,36.13,0,66.36-14.59,74.12-34.16a28,28,0,0,0,1.63-6h0a23.69,23.69,0,0,0,.25-2.66h0Z"/></g><g id="magnufying_glass" data-name="magnufying glass"><g id="habdle"><path class="cls-8" d="M528.76,447.77a10,10,0,0,1-4.9,8.6l-161.43,96a10.05,10.05,0,0,1-14.54-5.18l-.46-1.29a10,10,0,0,1,3.05-11.15h0a4.92,4.92,0,0,1,.58-.44h0a5.64,5.64,0,0,1,.7-.46l3.67-2.14,158.23-92.56a10.37,10.37,0,0,1,3.19-1.21,10.15,10.15,0,0,1,9.13,2.94A9.89,9.89,0,0,1,528.76,447.77Z"/><path class="cls-9" d="M528.76,447.77a10,10,0,0,1-4.9,8.6l-161.43,96a10.05,10.05,0,0,1-14.54-5.18l-.46-1.29a10,10,0,0,1,3.05-11.15h0a4.92,4.92,0,0,1,.58-.44h0a14.09,14.09,0,0,1,9.28,8c25.4-11.7,158.8-90.43,160.11-94.81,1.42-4.75-4.89-9.21-4.89-9.21l1-.28a10.15,10.15,0,0,1,9.41,2.88A9.89,9.89,0,0,1,528.76,447.77Z"/></g></g><g id="mag_glass" data-name="mag glass"><g id="outermost_circle" data-name="outermost circle"><path class="cls-10" d="M650.26,402.78a23.89,23.89,0,0,1-.3,3.88h0a27.41,27.41,0,0,1-1.63,6c-7.8,19.57-38.21,34.16-74.53,34.16-35.93,0-66.06-14.28-74.26-33.52h0c-.1-.21-.19-.42-.28-.63a26.81,26.81,0,0,1-1.93-9.91c0-24.32,34.24-44,76.47-44S650.26,378.46,650.26,402.78Z"/></g><g id="second_cirlce" data-name="second cirlce"><path class="cls-11" d="M641.16,402.79a22.73,22.73,0,0,1-.26,3.41h0a24.36,24.36,0,0,1-1.44,5.3c-6.88,17.24-33.66,30.09-65.66,30.09-31.65,0-58.19-12.57-65.42-29.52h0c-.09-.19-.17-.37-.24-.56a23.39,23.39,0,0,1-1.71-8.72c0-21.43,30.17-38.81,67.37-38.81S641.16,381.36,641.16,402.79Z"/></g><g id="Third_circles" data-name="Third circles"><path class="cls-12" d="M609.55,390a12.36,12.36,0,0,1-.16,2h0a14.17,14.17,0,0,1-.86,3.15c-4.09,10.26-20,17.91-39.07,17.91-18.83,0-34.63-7.48-38.93-17.57h0c0-.11-.1-.23-.14-.34a14,14,0,0,1-1-5.19c0-12.75,17.94-23.09,40.08-23.09S609.55,377.23,609.55,390Z"/><path class="cls-12" d="M584.19,431.32a4.52,4.52,0,0,1-.06.74h0a5.3,5.3,0,0,1-.31,1.15c-1.49,3.74-7.31,6.54-14.27,6.54s-12.65-2.73-14.22-6.42h0a.61.61,0,0,0-.05-.12,5.18,5.18,0,0,1-.37-1.9c0-4.65,6.56-8.43,14.64-8.43S584.19,426.67,584.19,431.32Z"/></g></g><g id="lower_book" data-name="lower book"><g id="shadow-2" data-name="shadow"><polygon class="cls-3" points="542.3 273.24 324.24 406.59 254.53 411.32 506.01 252.51 542.3 273.24"/></g><g id="lower_base_dark" data-name="lower base dark"><polygon class="cls-13" points="74.64 292.35 66.9 297.7 69.29 302.31 136.9 341.32 198.81 377.5 249.62 406.08 250.84 388.07 178.76 343.9 103.16 298.9 81.76 288.22 75.93 288.22 74.64 292.35"/></g><g id="page"><polygon class="cls-14" points="251.61 401.21 73.99 297.7 73.99 254.62 253.33 361.06 251.61 401.21"/></g><g id="base_darkest" data-name="base darkest"><polygon class="cls-15" points="508.51 212.36 255.02 357.94 254.53 411.32 508.9 263.98 508.51 212.36"/></g><g id="base_ldark_sides" data-name="base ldark sides"><polygon class="cls-16" points="254.5 367.34 66.9 255.91 66.9 250.1 254.78 361.92 254.5 367.34"/><polygon class="cls-16" points="245.01 376.42 245.01 401.75 66.9 297.7 66.9 303.53 245.01 406.01 245.01 406.08 254.53 411.32 254.85 375.74 245.01 376.42"/></g><g id="top_base_light" data-name="top base light"><polygon class="cls-13" points="256.26 362.6 66.9 250.1 312.76 93.48 505.95 215.44 256.26 362.6"/></g><g id="BORDER"><path class="cls-17" d="M303.38,121.35,83.56,249.15l160.55,94.38,222-128.35ZM90.76,248.53l211.54-123,156.63,90.3L245.27,339.35Z"/></g><g id="bOOK_TITLE" data-name="bOOK TITLE"><g class="cls-18"><g class="cls-19"><path class="cls-17" d="M315.22,342.39a9.54,9.54,0,0,0-2.63,2.33,11.64,11.64,0,0,0-2.41,6.31c-.06,1-.05,2.43,0,4.3l.26,7.62a24.32,24.32,0,0,0,.62,5.48,2.51,2.51,0,0,0,1.83,2,4.8,4.8,0,0,0,3.37-.91,9.53,9.53,0,0,0,3.22-3.22,11.28,11.28,0,0,0,1.61-4,32.52,32.52,0,0,0,.19-6l0-1L316.67,358l.11,3.28a15.26,15.26,0,0,1-.07,2.83,1.44,1.44,0,0,1-.65,1c-.36.21-.59.15-.7-.18a10.08,10.08,0,0,1-.24-2.38l-.41-12.11a14.06,14.06,0,0,1,.06-2.67,1.47,1.47,0,0,1,.7-1c.33-.2.56-.16.67.11a10.51,10.51,0,0,1,.23,2.37l.15,4.54,4.59-2.74-.08-2.48a21.12,21.12,0,0,0-.6-5.14,2.55,2.55,0,0,0-1.83-1.84,4.45,4.45,0,0,0-3.38.83"/><path class="cls-17" d="M330.66,344.2l-.2-5.8q.81-.48,1.11-.27c.21.14.33.62.36,1.45L332,341a4.78,4.78,0,0,1-.24,2.22,3,3,0,0,1-1.08,1M329,334.74l-3.25,1.94.89,26.07L331.2,360l-.4-11.75c.64-.38,1-.45,1.19-.2a7.17,7.17,0,0,1,.31,2.46l.29,8.66,4.27-2.55-.24-6.87a33.75,33.75,0,0,0-.24-3.79,2.73,2.73,0,0,0-.64-1.19c-.33-.37-.95-.45-1.88-.24a5.34,5.34,0,0,0,2-2.47,13,13,0,0,0,.37-4.39c-.07-2.23-.37-3.7-.89-4.42a1.67,1.67,0,0,0-1.93-.78,23.35,23.35,0,0,0-4.42,2.26"/><polyline class="cls-17" points="345.69 324.76 341.1 327.5 341.98 353.57 346.57 350.83 345.69 324.76"/><path class="cls-17" d="M365,313.21l-6,3.56-.64,12.8-.88-6.24c-.26-2-.5-3.76-.73-5.21l-5.94,3.54.89,26.07,4-2.39-.58-17.2,2.27,16.19,2.84-1.7,1-18.56.6,17.6,4-2.39L365,313.21"/><polyline class="cls-17" points="374.83 307.37 370.24 310.11 371.12 336.18 375.71 333.44 374.83 307.37"/><polyline class="cls-17" points="390.27 298.15 386.43 300.44 386.83 312.18 383.86 301.97 380.02 304.26 380.91 330.33 384.74 328.05 384.34 316.19 387.13 326.62 391.15 324.22 390.27 298.15"/><path class="cls-17" d="M400,309.47c.05-2.38.21-6.21.51-11.48.39,4.21.74,7.72,1.07,10.53l-1.58,1m3.45-19.16-6.64,4-1.45,27.47,4.74-2.83.12-4.86,1.64-1,.4,4.53,4.7-2.8-3.51-24.5"/><polyline class="cls-17" points="414.74 283.54 410.15 286.28 411.03 312.35 418.42 307.94 418.24 302.73 415.45 304.39 414.74 283.54"/><polyline class="cls-17" points="433.87 272.12 429.28 274.86 430.16 300.93 437.55 296.52 437.37 291.31 434.58 292.97 433.87 272.12"/><path class="cls-17" d="M446.17,281.87q.06-3.57.51-11.47c.38,4.21.73,7.72,1.07,10.53l-1.58.94m3.44-19.15-6.63,4-1.46,27.47,4.75-2.84.12-4.85,1.63-1,.41,4.54,4.69-2.8-3.51-24.5"/><path class="cls-17" d="M473.25,248.61l-4.47,2.66q-.57,9.59-.65,19.29l-.84-9.63c-.44-4.8-.7-7.57-.79-8.29l-4.77,2.84q-.64,11.68-.66,18.65l-.77-8.52-.79-8.8-4.46,2.66L458,284.32l5.7-3.41q.65-11,.81-14.43.87,7.31,1.85,12.84l5.74-3.42,1.16-27.29"/></g></g></g></g><g id="upper_book" data-name="upper book"><g id="under_base" data-name="under base"><polygon class="cls-20" points="42.6 212.75 34.56 218.85 194.89 313.11 204.57 304.34 42.6 212.75"/></g><g id="pages"><polygon class="cls-14" points="214.48 317.12 41.65 217.59 41.65 177.5 216.29 279.48 214.48 317.12"/></g><g id="base_dark" data-name="base dark"><polygon class="cls-21" points="217.55 277.79 34.57 170.21 34.02 176.11 214.45 281.53 213.72 302.31 219.4 302.31 219.4 278.87 217.55 277.79"/><polygon class="cls-21" points="34.56 218.85 195.88 313.69 194.25 317.12 34.56 224.27 34.56 218.85"/></g><g id="base_darker" data-name="base darker"><polygon class="cls-22" points="473.35 185.77 219.4 331.3 219.4 278.87 474.96 130.73 473.35 185.77"/></g><g id="top_base_light-2" data-name="top base light"><polygon class="cls-20" points="219.4 278.87 34.56 170.21 287.63 23.08 475 131.1 219.4 278.87"/></g><g id="top_border" data-name="top border"><path class="cls-17" d="M283.31,39.88,63.5,167.68l160.55,94.38,222-128.35ZM70.7,167.06l211.54-123,156.63,90.3L225.2,257.88Z"/></g><g id="top_upper_circle" data-name="top upper circle"><ellipse class="cls-17" cx="323.22" cy="102" rx="23.96" ry="15.21"/></g><g id="book_title-2" data-name="book title"><g class="cls-18"><g class="cls-23"><path class="cls-17" d="M226.7,92.33a10.32,10.32,0,0,0-3.79-1.23,14.92,14.92,0,0,0-4.37.07,18,18,0,0,0-4,1.1q-1.77.75-5,2.41l-8.82,4.47a39.76,39.76,0,0,0-6.17,3.64c-1.16.93-1.68,1.88-1.54,2.85s.94,1.89,2.43,2.74a10.87,10.87,0,0,0,5.09,1.31,16.07,16.07,0,0,0,5.33-.67,50.86,50.86,0,0,0,7.07-3.12l1.18-.6L209,102.4l-3.78,1.92a23.78,23.78,0,0,1-3.34,1.51,1.81,1.81,0,0,1-1.41-.08c-.4-.23-.43-.48-.09-.78a16.71,16.71,0,0,1,2.7-1.55l14-7.12a23.41,23.41,0,0,1,3.16-1.41,1.82,1.82,0,0,1,1.48.1c.38.21.43.44.16.7a16.72,16.72,0,0,1-2.7,1.54l-5.24,2.66,5.08,2.9,2.87-1.45a34,34,0,0,0,5.76-3.43,3.23,3.23,0,0,0,1.42-2.79c-.08-1-.86-1.94-2.36-2.79"/><path class="cls-17" d="M214,113.47c-.34-.2-.35-.42,0-.68a25.57,25.57,0,0,1,3.1-1.73l14.09-7.15a15,15,0,0,1,3-1.3,1.59,1.59,0,0,1,1.09.1c.31.18.32.4,0,.65a16.85,16.85,0,0,1-2.54,1.46l-13.88,7a31.4,31.4,0,0,1-3.51,1.63,1.72,1.72,0,0,1-1.37,0m26.35-13.37a10.43,10.43,0,0,0-3.74-1.22,14.4,14.4,0,0,0-4.38.1,18.57,18.57,0,0,0-4.32,1.25c-1.36.59-3.55,1.66-6.58,3.19L216.16,106c-3.11,1.58-5.24,2.72-6.38,3.4a7.87,7.87,0,0,0-2.55,2.27,2.4,2.4,0,0,0-.36,2.35,4.42,4.42,0,0,0,2,2,10.25,10.25,0,0,0,3.74,1.23,15.06,15.06,0,0,0,4.38-.1,18,18,0,0,0,4.32-1.26q2-.89,6.59-3.19l5.16-2.62c3.1-1.58,5.23-2.71,6.37-3.4a7.75,7.75,0,0,0,2.55-2.26,2.42,2.42,0,0,0,.36-2.36,4.37,4.37,0,0,0-2-2"/><polyline class="cls-17" points="258.82 111.33 254.58 108.91 240.99 115.81 251.73 107.28 247.48 104.86 217.3 120.18 221.55 122.6 235.27 115.64 224.19 124.11 228.64 126.65 258.82 111.33"/><path class="cls-17" d="M266.59,115.07a10.59,10.59,0,0,0-4-1.3,12.58,12.58,0,0,0-4.36.22,25.77,25.77,0,0,0-5.64,2.24,17.81,17.81,0,0,0-3.55,2.24,4.71,4.71,0,0,0-1.4,1.81,11,11,0,0,0-.31,2.86,7.27,7.27,0,0,1-.36,2.75c-.23.46-1.23,1.13-3,2a8,8,0,0,1-2.07.78,1.93,1.93,0,0,1-1.36-.11c-.34-.2-.42-.42-.23-.65a7.92,7.92,0,0,1,2-1.22l3.68-1.87-4.72-2.69-2,1a25.79,25.79,0,0,0-4.79,2.91,2.72,2.72,0,0,0-1.14,2.62,4,4,0,0,0,2.28,2.59,10.92,10.92,0,0,0,4.29,1.33,12.71,12.71,0,0,0,4.45-.22,26.11,26.11,0,0,0,5.25-2.13q4.44-2.26,5.55-3.77c.74-1,1-2.69.83-5a2.25,2.25,0,0,1,.4-1.76,7.94,7.94,0,0,1,2-1.3,8.4,8.4,0,0,1,2-.76,1.93,1.93,0,0,1,1.28.1c.28.16.34.35.17.56a6.84,6.84,0,0,1-1.81,1.12l-2.24,1.13,4.72,2.7,1.19-.61a22.19,22.19,0,0,0,4.65-2.84,2.17,2.17,0,0,0,.65-2.32,4.79,4.79,0,0,0-2.39-2.43"/><polyline class="cls-17" points="283.88 125.61 272.77 119.28 266.73 122.35 269.73 124.06 245.59 136.32 250.68 139.22 274.82 126.96 277.83 128.68 283.88 125.61"/><polyline class="cls-17" points="290.12 129.17 285.04 126.28 254.86 141.6 259.94 144.5 290.12 129.17"/><polyline class="cls-17" points="302.39 136.17 291.29 129.84 285.24 132.91 288.25 134.62 264.11 146.88 269.19 149.77 293.33 137.52 296.35 139.24 302.39 136.17"/><path class="cls-17" d="M315.1,143.42l-5.08-2.9-22.24,11.29a23.34,23.34,0,0,1-3,1.37,1.51,1.51,0,0,1-1.23,0c-.28-.16-.28-.36,0-.6a16,16,0,0,1,2.38-1.36l22.64-11.49-5.08-2.9-17.86,9.07c-3.41,1.73-5.6,2.88-6.58,3.47a7.24,7.24,0,0,0-2.25,2,2.4,2.4,0,0,0-.32,2.33,4.53,4.53,0,0,0,2.19,2.21,9.73,9.73,0,0,0,3.51,1.19,14.1,14.1,0,0,0,4.09-.06,16.9,16.9,0,0,0,3.71-1c1-.42,2.67-1.2,5-2.36l20.17-10.24"/><polyline class="cls-17" points="327.3 150.38 316.2 144.05 310.16 147.11 313.16 148.82 289.02 161.08 294.1 163.98 318.24 151.72 321.26 153.44 327.3 150.38"/><polyline class="cls-17" points="333.54 153.93 328.46 151.04 298.27 166.36 303.36 169.25 333.54 153.93"/><path class="cls-17" d="M315.6,171.41c-.34-.19-.36-.42,0-.68a25.21,25.21,0,0,1,3.11-1.73l14.09-7.15a14.35,14.35,0,0,1,3-1.3,1.56,1.56,0,0,1,1.08.1c.31.18.33.4,0,.65a15.19,15.19,0,0,1-2.53,1.46l-13.88,7a33.27,33.27,0,0,1-3.52,1.63,1.66,1.66,0,0,1-1.36,0M341.94,158a10.38,10.38,0,0,0-3.73-1.22,14.72,14.72,0,0,0-4.38.09,19,19,0,0,0-4.33,1.26c-1.35.59-3.55,1.66-6.57,3.19L317.76,164c-3.11,1.58-5.24,2.72-6.38,3.4a7.71,7.71,0,0,0-2.54,2.27,2.39,2.39,0,0,0-.36,2.35,4.39,4.39,0,0,0,2,2,10.5,10.5,0,0,0,3.74,1.23,15.06,15.06,0,0,0,4.38-.1,18.06,18.06,0,0,0,4.33-1.26c1.35-.59,3.55-1.65,6.58-3.19l5.16-2.62c3.11-1.58,5.23-2.71,6.38-3.4a7.61,7.61,0,0,0,2.54-2.27,2.41,2.41,0,0,0,.37-2.34,4.42,4.42,0,0,0-2-2"/><polyline class="cls-17" points="360.43 169.27 356.18 166.84 342.59 173.74 353.33 165.22 349.08 162.8 318.9 178.12 323.15 180.54 336.87 173.57 325.79 182.05 330.25 184.59 360.43 169.27"/><path class="cls-17" d="M213.91,162.81c-.34-.2-.35-.42,0-.69A25.65,25.65,0,0,1,217,160.4l14.09-7.15a15.48,15.48,0,0,1,3-1.31,1.62,1.62,0,0,1,1.08.11c.31.18.32.4,0,.65a16.3,16.3,0,0,1-2.54,1.46l-13.86,7a30.36,30.36,0,0,1-3.53,1.62,1.69,1.69,0,0,1-1.37,0m26.36-13.37a10.1,10.1,0,0,0-3.75-1.22,14.65,14.65,0,0,0-4.37.09,18.2,18.2,0,0,0-4.33,1.26q-2,.88-6.58,3.19l-5.16,2.62c-3.11,1.58-5.23,2.71-6.38,3.39a7.83,7.83,0,0,0-2.54,2.27,2.43,2.43,0,0,0-.37,2.35,4.42,4.42,0,0,0,2,2,10.44,10.44,0,0,0,3.73,1.22,14.4,14.4,0,0,0,4.38-.1,18.51,18.51,0,0,0,4.33-1.25c1.35-.59,3.55-1.66,6.58-3.19l5.16-2.62c3.11-1.58,5.23-2.71,6.38-3.4a7.82,7.82,0,0,0,2.54-2.27,2.4,2.4,0,0,0,.37-2.35,4.47,4.47,0,0,0-2-2"/><polyline class="cls-17" points="256.01 159.1 247.41 154.19 217.22 169.52 222.31 172.41 234.98 165.98 238.12 167.77 243.85 164.85 240.72 163.06 246.44 160.16 249.97 162.17 256.01 159.1"/><polyline class="cls-17" points="177.92 163.95 172.84 161.06 142.66 176.38 147.75 179.27 177.92 163.95"/><polyline class="cls-17" points="191.3 171.58 187.05 169.16 173.47 176.06 184.21 167.54 179.96 165.12 149.78 180.43 154.03 182.86 167.75 175.89 156.68 184.37 161.13 186.9 191.3 171.58"/><path class="cls-17" d="M173.41,188.34l19.85-10.07q.83.47.87.78c0,.21-.14.42-.47.65a26.2,26.2,0,0,1-2.54,1.38l-11.72,6a22.16,22.16,0,0,1-4,1.73,2.87,2.87,0,0,1-2-.43m23.73-13.43-3.8-2.16-30.17,15.32,6.41,3.65a15,15,0,0,0,3,1.4,8.08,8.08,0,0,0,2.59.32,10.42,10.42,0,0,0,3-.6,55.17,55.17,0,0,0,5.68-2.61l10.57-5.37q4.29-2.18,5.59-3a5.11,5.11,0,0,0,1.8-1.83,1.72,1.72,0,0,0-.26-2,18,18,0,0,0-4.46-3.11"/><polyline class="cls-17" points="212.08 183.44 207 180.54 176.83 195.86 181.91 198.75 212.08 183.44"/><path class="cls-17" d="M199.06,196.92q4.22-1.9,13.65-5.88-7.16,4.07-11.9,6.88l-1.75-1m23.85-7.31-7.35-4.19L182.8,199.26l5.25,3,5.73-2.58,1.81,1-5.14,2.91,5.19,3,27.27-17"/></g></g></g></g><g id="scales"><g id="shadow-3" data-name="shadow"><ellipse class="cls-3" cx="247.23" cy="473.34" rx="48.36" ry="29.24"/><ellipse class="cls-3" cx="511.75" cy="325.93" rx="49.63" ry="29.24"/><ellipse class="cls-3" cx="391.06" cy="409.07" rx="66.57" ry="35.77"/></g><g id="base_darkest-2" data-name="base darkest"><path class="cls-24" d="M576.11,187.73s-7.39,38.15-60.14,39-65.17-34.61-65.12-41.37Z"/><path class="cls-24" d="M184.86,339.61s7.58,29.9,41.86,37.48,73.66-1,84.65-36.64Z"/></g><g id="second_base" data-name="second base"><path class="cls-25" d="M517.29,161.65c25,6.64,45.44,18.78,56.07,31.84a23.29,23.29,0,0,0,3.85-12.57c0-20.21-28.44-36.58-63.53-36.58-20.39,0-38.52,5.53-50.14,14.12C478.4,155.55,497.44,156.38,517.29,161.65Z"/><path class="cls-25" d="M573.36,193.48c-8.9,14-32.26,24-59.68,24-35.09,0-63.54-16.38-63.54-36.58,0-8.47,5-16.26,13.39-22.46,14.88-2.91,33.91-2.08,53.76,3.18C542.32,168.29,562.73,180.43,573.36,193.48Z"/><path class="cls-26" d="M573.36,193.48c-8.9,14-32.26,24-59.68,24-35.09,0-63.54-16.38-63.54-36.58,0-8.47,5-16.26,13.39-22.46,14.88-2.91,33.91-2.08,53.76,3.18C542.32,168.29,562.73,180.43,573.36,193.48Z"/><path class="cls-25" d="M312.76,332.82c0,6.76-3.17,13.1-8.69,18.56-11.16,11-32,18.44-55.81,18.44-35.61,0-64.49-16.56-64.49-37,0-9.91,6.78-18.91,17.83-25.55,11.75-7.06,28.31-11.46,46.66-11.46C283.88,295.81,312.76,312.38,312.76,332.82Z"/><path class="cls-26" d="M304.07,351.38c-11.16,11-32,18.44-55.81,18.44-35.61,0-64.49-16.56-64.49-37,0-9.91,6.78-18.91,17.83-25.55,13.26-3.12,29-3.07,45.2.88C275.6,315.19,297.53,332.61,304.07,351.38Z"/></g><g id="base_lightest" data-name="base lightest"><ellipse class="cls-27" cx="513.53" cy="193.11" rx="39.83" ry="24.39"/><path class="cls-27" d="M513.94,143.12c-36,0-65.17,16.77-65.17,37.46S478,218,513.94,218s65.17-16.77,65.17-37.46S549.93,143.12,513.94,143.12Zm0,73.83c-34.94,0-63.27-16.29-63.27-36.37s28.33-36.37,63.27-36.37,63.27,16.28,63.27,36.37S548.88,217,513.94,217Z"/><ellipse class="cls-27" cx="247.18" cy="346.04" rx="40.92" ry="23.78"/><path class="cls-27" d="M248.26,294.54c-36.11,0-65.39,17.14-65.39,38.3s29.28,38.29,65.39,38.29,65.39-17.14,65.39-38.29S284.38,294.54,248.26,294.54Zm0,75.25c-34.85,0-63.11-16.54-63.11-37s28.26-37,63.11-37,63.11,16.54,63.11,37S283.12,369.79,248.26,369.79Z"/></g><g id="ropes"><line class="cls-28" x1="513.56" y1="15.01" x2="513.56" y2="143.12"/><line class="cls-28" x1="514.62" y1="15.01" x2="570.48" y2="199.84"/><line class="cls-28" x1="512.23" y1="17.82" x2="461.63" y2="204.32"/><path class="cls-24" d="M510,26l3.53,5,4.37-5-3.45-11.79c-.62.78-1.27,1.47-2.25,0V17Z"/><line class="cls-28" x1="248.45" y1="167.55" x2="305.49" y2="352.16"/><line class="cls-28" x1="246.5" y1="169.94" x2="195.12" y2="356.26"/><line class="cls-28" x1="248.01" y1="170.35" x2="248.01" y2="294.54"/><polygon class="cls-24" points="244.13 179.8 248.01 183.39 252.23 179.8 248.18 169.13 246.5 170.35 244.13 179.8"/></g></g><g id="scale_second_base" data-name="scale second base"><g id="base_dark-2" data-name="base dark"><path class="cls-2" d="M375.18,432.51q8.83-1.71,17.65-3.59c10.44-2.23,21.35-4.91,29.22-12.11,8.32-7.62,11.85-19,15.63-29.6a1.72,1.72,0,0,1,.71-1,1.45,1.45,0,0,1,1.06.05c-9.09-16.22-34.32-27.9-64-27.9-37.37,0-67.67,18.46-67.67,41.22,0,20.25,24,37.08,55.61,40.55a11.64,11.64,0,0,1,1.24-3.8C366.49,433.09,372,433.12,375.18,432.51Z"/><path class="cls-29" d="M443.08,399.55c0,22.76-30.29,41.22-67.67,41.22a110.49,110.49,0,0,1-12.06-.67,11.41,11.41,0,0,1,1.25-3.8c1.89-3.22,7.4-3.18,10.58-3.8,5.89-1.14,11.78-2.32,17.66-3.59,10.43-2.23,21.34-4.9,29.21-12.11,8.32-7.61,11.85-19,15.63-29.58a1.71,1.71,0,0,1,.72-1,1.42,1.42,0,0,1,1.05.05A27,27,0,0,1,443.08,399.55Z"/></g><g id="base_lightest-2" data-name="base lightest"><ellipse class="cls-27" cx="375.34" cy="396.84" rx="66.66" ry="38.51"/></g><g id="base_light" data-name="base light"><ellipse class="cls-25" cx="375.69" cy="394.67" rx="64.95" ry="36.34"/></g></g><g id="scale_first_base" data-name="scale first base"><g id="base_lightest-3" data-name="base lightest"><ellipse class="cls-27" cx="377.06" cy="388.47" rx="52.57" ry="30.17"/></g><g id="base_dark-3" data-name="base dark"><path class="cls-2" d="M324.79,391.65a17.86,17.86,0,0,0-.3,3.19c0,14.73,18.43,27,42.77,29.64.5-2.07.87-4.16,1.34-6.24C345.39,416.09,327.27,405.21,324.79,391.65Z"/><path class="cls-29" d="M429.62,394.84c0,16.66-23.53,30.17-52.56,30.17a92,92,0,0,1-9.8-.53c.49-2.07.87-4.15,1.34-6.23,2.76.25,5.58.39,8.46.39,27.16,0,49.51-11.82,52.28-27A17.85,17.85,0,0,1,429.62,394.84Z"/></g></g><g id="scale_stand" data-name="scale stand"><g id="base_lightes" data-name="base lightes"><ellipse class="cls-27" cx="377.81" cy="93.49" rx="7.65" ry="3.3"/><ellipse class="cls-27" cx="378.1" cy="108.22" rx="13.5" ry="7.6"/><ellipse class="cls-27" cx="377.69" cy="345.66" rx="13.1" ry="7.5"/><ellipse class="cls-27" cx="377.92" cy="374.86" rx="19.92" ry="11.63"/></g><g id="base_light-3" data-name="base light"><path class="cls-25" d="M389.07,107.3c0,3.35-4.7,6.51-11.07,6.51s-11.15-3.07-11.15-6.42,4.79-5.51,11.15-5.51S389.07,104,389.07,107.3Z"/><ellipse class="cls-25" cx="377.92" cy="345.59" rx="11.52" ry="5.62"/><ellipse class="cls-25" cx="377.69" cy="374.04" rx="18.15" ry="9.37"/></g><g id="base_dark-4" data-name="base dark"><path class="cls-2" d="M378.1,115.82c-7.46,0-13.5-3.41-13.5-7.6v82.91c0,3.3,3.74,6.1,9,7.15l-4.38,145.66c0,2.33,3.91,4.22,8.74,4.22s8.74-1.89,8.74-4.22l-3.51-145.76c5-1.13,8.45-3.86,8.45-7.05V108.22C391.6,112.41,385.56,115.82,378.1,115.82Z"/><g class="cls-30"><polygon class="cls-31" points="378 113.81 378 352.98 414.09 353.16 410.12 100.62 378 113.81"/></g><path class="cls-2" d="M377.69,353.16c-7.23,0-13.09-3.36-13.09-7.5V372c0,4.14,5.86,7.5,13.09,7.5s13.1-3.36,13.1-7.5V345.66C390.79,349.8,384.93,353.16,377.69,353.16Z"/><g class="cls-32"><polygon class="cls-31" points="377.92 351.21 375.6 383.35 397.55 383.42 394.22 343.67 377.92 351.21"/></g><path class="cls-2" d="M377.92,386.49c-11,0-19.92-5.21-19.92-11.63v11.63s4.09,9.77,19.69,9.71,19.74-9.29,19.74-9.29l.4-12.05C397.83,381.28,388.92,386.49,377.92,386.49Z"/><g class="cls-33"><polygon class="cls-31" points="375.98 385.53 373.84 399.13 402.71 399.85 400.36 368.6 375.98 385.53"/></g><path class="cls-2" d="M377.81,96.78c-4.22,0-7.64-1.47-7.64-3.3v13.73c0,1.82,3.42,3.3,7.64,3.3h.29V96.78Z"/><path class="cls-31" d="M385.46,93.49v13.72c0,1.78-3.28,3.23-7.36,3.29V96.78C382.18,96.71,385.46,95.26,385.46,93.49Z"/></g></g><g id="saclae_hands" data-name="saclae hands"><g id="base_lightest-4" data-name="base lightest"><path class="cls-27" d="M287.38,144.29C313.13,138,338.74,130.7,363,119.92a33.18,33.18,0,0,1,11.39-3v9.71l-2.87-.38c-5.63,6.89-15.29,8.47-23.71,11.34-7.92,2.69-15.29,6.87-23.3,9.28-6.79,2.06-13.9,2.8-20.94,3.74a333.19,333.19,0,0,0-33.63,6.21c-5.32,1.27-10.87,2.83-14.8,6.64a3.28,3.28,0,0,1-1.61,1.08,2,2,0,0,1-2.13-1.75c-.62-3,2.54-4.92,4.61-6.46a46.36,46.36,0,0,1,7.69-4.59A94.52,94.52,0,0,1,281,145.88C283.11,145.33,285.24,144.81,287.38,144.29Z"/><path class="cls-27" d="M389.07,106.31s29.72-21.5,33.69-26.37,74.45-68,86.91-70.88l.52,5.3-35.4,30.89L420.05,93.49l-25.47,18.6-7.12-2.17Z"/></g><g id="base_darkest-3" data-name="base darkest"><path class="cls-31" d="M374.37,121.17v13s-8.6.46-11.17,2.49S339,148.13,309.36,151.92,260.59,163,253.55,167.5v-3.93s2.3-4.47,14.76-9.62S348,135.26,358,128.62,374.37,121.17,374.37,121.17Z"/><path class="cls-31" d="M389.83,123.58S414.57,105,417.1,101.92s51.24-48.56,53.23-49.64,31.27-30.13,40.12-35.91L510,14.18s-18.84,7.43-42,30.91-67.82,60.65-77.31,65.83Z"/></g><g id="holders"><path class="cls-2" d="M245.82,160.08a10.31,10.31,0,0,0,2.56,1.36,14.92,14.92,0,0,0,4.39,1.32c.44,0,.88,0,1.32.05v-6a5.83,5.83,0,0,0-5.8-5.81h-.55a5.81,5.81,0,0,0-5.19,3.24c.21.5.34,1.11.45,1.37A10.65,10.65,0,0,0,245.82,160.08Z"/><path class="cls-31" d="M254.09,162.81v3.36a5.82,5.82,0,0,1-5.81,5.8h-.54a5.82,5.82,0,0,1-5.8-5.8v-9.39a5.72,5.72,0,0,1,.61-2.57c.2.5.34,1.11.45,1.36a10.56,10.56,0,0,0,2.82,4.51,10.31,10.31,0,0,0,2.56,1.36,14.54,14.54,0,0,0,4.39,1.32C253.21,162.8,253.65,162.79,254.09,162.81Z"/><path class="cls-2" d="M510,13.57a19.06,19.06,0,0,0,1.47-1.37,18.29,18.29,0,0,0,2.87-4.61c.75-1.57,1.43-3.18,2.06-4.81a4.72,4.72,0,0,0-3.3-1.35h-.38A4.73,4.73,0,0,0,508,6.16v7a4.68,4.68,0,0,0,.39,1.88c0-.06.07-.12.11-.17A13.18,13.18,0,0,1,510,13.57Z"/><path class="cls-31" d="M517.87,6.16v7a4.74,4.74,0,0,1-4.73,4.73h-.39A4.75,4.75,0,0,1,508.42,15a.78.78,0,0,1,.11-.18A15.68,15.68,0,0,1,510,13.56c.5-.43,1-.88,1.47-1.36a18.43,18.43,0,0,0,2.88-4.61c.74-1.57,1.42-3.18,2.06-4.81A4.75,4.75,0,0,1,517.87,6.16Z"/></g></g></svg>