<svg xmlns="http://www.w3.org/2000/svg" xmlns:xlink="http://www.w3.org/1999/xlink" width="500" zoomAndPan="magnify" viewBox="0 0 375 374.999991" height="500" preserveAspectRatio="xMidYMid meet" version="1.0"><defs><g/></defs><g fill="#0052cc" fill-opacity="1"><g transform="translate(24.505548, 364.215345)"><g><path d="M 10.40625 -24 C 11.675781 -24 12.921875 -23.8125 14.140625 -23.4375 C 15.359375 -23.070312 16.265625 -22.707031 16.859375 -22.34375 L 17.71875 -21.78125 L 15.546875 -17.484375 C 15.378906 -17.597656 15.140625 -17.742188 14.828125 -17.921875 C 14.523438 -18.109375 13.953125 -18.351562 13.109375 -18.65625 C 12.273438 -18.96875 11.5 -19.125 10.78125 -19.125 C 9.882812 -19.125 9.191406 -18.929688 8.703125 -18.546875 C 8.210938 -18.160156 7.96875 -17.644531 7.96875 -17 C 7.96875 -16.675781 8.082031 -16.375 8.3125 -16.09375 C 8.539062 -15.820312 8.929688 -15.53125 9.484375 -15.21875 C 10.035156 -14.90625 10.519531 -14.648438 10.9375 -14.453125 C 11.363281 -14.265625 12.015625 -13.984375 12.890625 -13.609375 C 14.410156 -12.953125 15.707031 -12.066406 16.78125 -10.953125 C 17.863281 -9.835938 18.40625 -8.578125 18.40625 -7.171875 C 18.40625 -5.816406 18.160156 -4.632812 17.671875 -3.625 C 17.191406 -2.613281 16.523438 -1.820312 15.671875 -1.25 C 14.828125 -0.6875 13.890625 -0.269531 12.859375 0 C 11.828125 0.28125 10.710938 0.421875 9.515625 0.421875 C 8.484375 0.421875 7.472656 0.316406 6.484375 0.109375 C 5.492188 -0.0976562 4.664062 -0.359375 4 -0.671875 C 3.332031 -0.984375 2.734375 -1.289062 2.203125 -1.59375 C 1.671875 -1.90625 1.28125 -2.164062 1.03125 -2.375 L 0.65625 -2.6875 L 3.34375 -7.203125 C 3.570312 -7.015625 3.882812 -6.769531 4.28125 -6.46875 C 4.6875 -6.175781 5.394531 -5.78125 6.40625 -5.28125 C 7.425781 -4.789062 8.328125 -4.546875 9.109375 -4.546875 C 11.378906 -4.546875 12.515625 -5.316406 12.515625 -6.859375 C 12.515625 -7.179688 12.429688 -7.476562 12.265625 -7.75 C 12.109375 -8.03125 11.820312 -8.304688 11.40625 -8.578125 C 11 -8.859375 10.640625 -9.078125 10.328125 -9.234375 C 10.015625 -9.398438 9.5 -9.648438 8.78125 -9.984375 C 8.070312 -10.316406 7.546875 -10.570312 7.203125 -10.75 C 5.773438 -11.445312 4.671875 -12.320312 3.890625 -13.375 C 3.109375 -14.4375 2.71875 -15.578125 2.71875 -16.796875 C 2.71875 -18.910156 3.5 -20.640625 5.0625 -21.984375 C 6.625 -23.328125 8.40625 -24 10.40625 -24 Z M 10.40625 -24 "/></g></g></g><g fill="#0052cc" fill-opacity="1"><g transform="translate(49.600504, 364.215345)"><g><path d="M 3.09375 -1.75 C 1.46875 -3.195312 0.65625 -5.050781 0.65625 -7.3125 C 0.65625 -9.582031 1.503906 -11.445312 3.203125 -12.90625 C 4.898438 -14.363281 6.992188 -15.09375 9.484375 -15.09375 C 11.941406 -15.09375 14.015625 -14.359375 15.703125 -12.890625 C 17.390625 -11.421875 18.234375 -9.5625 18.234375 -7.3125 C 18.234375 -5.0625 17.40625 -3.207031 15.75 -1.75 C 14.101562 -0.300781 12.015625 0.421875 9.484375 0.421875 C 6.859375 0.421875 4.726562 -0.300781 3.09375 -1.75 Z M 7.015625 -9.796875 C 6.359375 -9.148438 6.03125 -8.320312 6.03125 -7.3125 C 6.03125 -6.300781 6.34375 -5.476562 6.96875 -4.84375 C 7.601562 -4.207031 8.429688 -3.890625 9.453125 -3.890625 C 10.453125 -3.890625 11.269531 -4.210938 11.90625 -4.859375 C 12.539062 -5.503906 12.859375 -6.320312 12.859375 -7.3125 C 12.859375 -8.320312 12.53125 -9.148438 11.875 -9.796875 C 11.21875 -10.453125 10.410156 -10.78125 9.453125 -10.78125 C 8.484375 -10.78125 7.671875 -10.453125 7.015625 -9.796875 Z M 7.015625 -9.796875 "/></g></g></g><g fill="#0052cc" fill-opacity="1"><g transform="translate(74.381065, 364.215345)"><g><path d="M 1.71875 0 L 1.71875 -24.578125 L 6.765625 -24.578125 L 6.765625 0 Z M 1.71875 0 "/></g></g></g><g fill="#0052cc" fill-opacity="1"><g transform="translate(88.758227, 364.215345)"><g><path d="M 5.4375 -14.65625 L 9 -6.6875 L 12.578125 -14.65625 L 18.578125 -14.65625 L 10.71875 0 L 7.28125 0 L -0.578125 -14.65625 Z M 5.4375 -14.65625 "/></g></g></g><g fill="#0052cc" fill-opacity="1"><g transform="translate(112.652795, 364.215345)"><g><path d="M 16.546875 -6.625 L 5.921875 -6.625 C 5.921875 -5.601562 6.253906 -4.84375 6.921875 -4.34375 C 7.585938 -3.84375 8.3125 -3.59375 9.09375 -3.59375 C 9.90625 -3.59375 10.550781 -3.703125 11.03125 -3.921875 C 11.507812 -4.148438 12.050781 -4.585938 12.65625 -5.234375 L 16.3125 -3.40625 C 14.789062 -0.851562 12.257812 0.421875 8.71875 0.421875 C 6.507812 0.421875 4.613281 -0.332031 3.03125 -1.84375 C 1.445312 -3.351562 0.65625 -5.175781 0.65625 -7.3125 C 0.65625 -9.445312 1.445312 -11.273438 3.03125 -12.796875 C 4.613281 -14.328125 6.507812 -15.09375 8.71875 -15.09375 C 11.039062 -15.09375 12.929688 -14.421875 14.390625 -13.078125 C 15.847656 -11.734375 16.578125 -9.8125 16.578125 -7.3125 C 16.578125 -6.96875 16.566406 -6.738281 16.546875 -6.625 Z M 6.0625 -9.4375 L 11.625 -9.4375 C 11.507812 -10.195312 11.207031 -10.78125 10.71875 -11.1875 C 10.238281 -11.59375 9.617188 -11.796875 8.859375 -11.796875 C 8.023438 -11.796875 7.359375 -11.578125 6.859375 -11.140625 C 6.359375 -10.703125 6.09375 -10.132812 6.0625 -9.4375 Z M 6.0625 -9.4375 "/></g></g></g><g fill="#0052cc" fill-opacity="1"><g transform="translate(135.775672, 364.215345)"><g/></g></g><g fill="#0052cc" fill-opacity="1"><g transform="translate(149.466905, 364.215345)"><g><path d="M 7.09375 -23.578125 L 7.09375 -4.71875 L 15.203125 -4.71875 L 15.203125 0 L 1.71875 0 L 1.71875 -23.578125 Z M 7.09375 -23.578125 "/></g></g></g><g fill="#0052cc" fill-opacity="1"><g transform="translate(171.50371, 364.215345)"><g><path d="M 2.203125 -22.828125 C 2.796875 -23.421875 3.5 -23.71875 4.3125 -23.71875 C 5.132812 -23.71875 5.835938 -23.421875 6.421875 -22.828125 C 7.015625 -22.242188 7.3125 -21.539062 7.3125 -20.71875 C 7.3125 -19.894531 7.015625 -19.1875 6.421875 -18.59375 C 5.835938 -18.007812 5.132812 -17.71875 4.3125 -17.71875 C 3.5 -17.71875 2.796875 -18.007812 2.203125 -18.59375 C 1.609375 -19.1875 1.3125 -19.894531 1.3125 -20.71875 C 1.3125 -21.539062 1.609375 -22.242188 2.203125 -22.828125 Z M 1.71875 -14.65625 L 1.71875 0 L 6.765625 0 L 6.765625 -14.65625 Z M 1.71875 -14.65625 "/></g></g></g><g fill="#0052cc" fill-opacity="1"><g transform="translate(186.023779, 364.215345)"><g><path d="M 2.578125 -14.65625 L 2.578125 -20.125 L 7.625 -20.125 L 7.625 -14.65625 L 10.71875 -14.65625 L 10.71875 -10.796875 L 7.625 -10.796875 L 7.625 -6.140625 C 7.625 -4.785156 8.007812 -4.109375 8.78125 -4.109375 C 8.96875 -4.109375 9.164062 -4.144531 9.375 -4.21875 C 9.582031 -4.300781 9.742188 -4.378906 9.859375 -4.453125 L 10.03125 -4.578125 L 11.28125 -0.484375 C 10.195312 0.117188 8.960938 0.421875 7.578125 0.421875 C 6.617188 0.421875 5.796875 0.253906 5.109375 -0.078125 C 4.429688 -0.410156 3.914062 -0.851562 3.5625 -1.40625 C 3.207031 -1.96875 2.953125 -2.554688 2.796875 -3.171875 C 2.648438 -3.796875 2.578125 -4.460938 2.578125 -5.171875 L 2.578125 -10.796875 L 0.453125 -10.796875 L 0.453125 -14.65625 Z M 2.578125 -14.65625 "/></g></g></g><g fill="#0052cc" fill-opacity="1"><g transform="translate(203.201869, 364.215345)"><g><path d="M 2.203125 -22.828125 C 2.796875 -23.421875 3.5 -23.71875 4.3125 -23.71875 C 5.132812 -23.71875 5.835938 -23.421875 6.421875 -22.828125 C 7.015625 -22.242188 7.3125 -21.539062 7.3125 -20.71875 C 7.3125 -19.894531 7.015625 -19.1875 6.421875 -18.59375 C 5.835938 -18.007812 5.132812 -17.71875 4.3125 -17.71875 C 3.5 -17.71875 2.796875 -18.007812 2.203125 -18.59375 C 1.609375 -19.1875 1.3125 -19.894531 1.3125 -20.71875 C 1.3125 -21.539062 1.609375 -22.242188 2.203125 -22.828125 Z M 1.71875 -14.65625 L 1.71875 0 L 6.765625 0 L 6.765625 -14.65625 Z M 1.71875 -14.65625 "/></g></g></g><g fill="#0052cc" fill-opacity="1"><g transform="translate(217.721939, 364.215345)"><g><path d="M 1.0625 3.59375 L 5.203125 1.578125 C 5.960938 2.828125 7.285156 3.453125 9.171875 3.453125 C 10.046875 3.453125 10.859375 3.171875 11.609375 2.609375 C 12.367188 2.046875 12.75 1.1875 12.75 0.03125 L 12.75 -1.0625 C 11.851562 -0.0703125 10.25 0.421875 7.9375 0.421875 C 5.820312 0.421875 4.078125 -0.320312 2.703125 -1.8125 C 1.335938 -3.3125 0.65625 -5.144531 0.65625 -7.3125 C 0.65625 -9.488281 1.335938 -11.328125 2.703125 -12.828125 C 4.078125 -14.335938 5.820312 -15.09375 7.9375 -15.09375 C 9.832031 -15.09375 11.40625 -14.507812 12.65625 -13.34375 L 12.75 -13.34375 L 12.75 -14.65625 L 17.796875 -14.65625 L 17.796875 0.40625 C 17.796875 2.78125 17.003906 4.613281 15.421875 5.90625 C 13.847656 7.207031 11.765625 7.859375 9.171875 7.859375 C 4.984375 7.859375 2.28125 6.4375 1.0625 3.59375 Z M 7.015625 -9.796875 C 6.359375 -9.148438 6.03125 -8.320312 6.03125 -7.3125 C 6.03125 -6.300781 6.34375 -5.476562 6.96875 -4.84375 C 7.601562 -4.207031 8.429688 -3.890625 9.453125 -3.890625 C 10.453125 -3.890625 11.269531 -4.210938 11.90625 -4.859375 C 12.539062 -5.503906 12.859375 -6.320312 12.859375 -7.3125 C 12.859375 -8.320312 12.53125 -9.148438 11.875 -9.796875 C 11.21875 -10.453125 10.410156 -10.78125 9.453125 -10.78125 C 8.484375 -10.78125 7.671875 -10.453125 7.015625 -9.796875 Z M 7.015625 -9.796875 "/></g></g></g><g fill="#0052cc" fill-opacity="1"><g transform="translate(243.13128, 364.215345)"><g><path d="M 2.703125 -1.8125 C 1.335938 -3.3125 0.65625 -5.144531 0.65625 -7.3125 C 0.65625 -9.488281 1.335938 -11.328125 2.703125 -12.828125 C 4.078125 -14.335938 5.820312 -15.09375 7.9375 -15.09375 C 9.882812 -15.09375 11.488281 -14.484375 12.75 -13.265625 L 12.75 -14.65625 L 17.796875 -14.65625 L 17.796875 0 L 12.796875 0 L 12.796875 -1.65625 L 12.75 -1.65625 C 11.488281 -0.269531 9.882812 0.421875 7.9375 0.421875 C 5.820312 0.421875 4.078125 -0.320312 2.703125 -1.8125 Z M 7.015625 -9.796875 C 6.359375 -9.148438 6.03125 -8.320312 6.03125 -7.3125 C 6.03125 -6.300781 6.34375 -5.476562 6.96875 -4.84375 C 7.601562 -4.207031 8.429688 -3.890625 9.453125 -3.890625 C 10.453125 -3.890625 11.269531 -4.210938 11.90625 -4.859375 C 12.539062 -5.503906 12.859375 -6.320312 12.859375 -7.3125 C 12.859375 -8.320312 12.53125 -9.148438 11.875 -9.796875 C 11.21875 -10.453125 10.410156 -10.78125 9.453125 -10.78125 C 8.484375 -10.78125 7.671875 -10.453125 7.015625 -9.796875 Z M 7.015625 -9.796875 "/></g></g></g><g fill="#0052cc" fill-opacity="1"><g transform="translate(268.540621, 364.215345)"><g><path d="M 2.578125 -14.65625 L 2.578125 -20.125 L 7.625 -20.125 L 7.625 -14.65625 L 10.71875 -14.65625 L 10.71875 -10.796875 L 7.625 -10.796875 L 7.625 -6.140625 C 7.625 -4.785156 8.007812 -4.109375 8.78125 -4.109375 C 8.96875 -4.109375 9.164062 -4.144531 9.375 -4.21875 C 9.582031 -4.300781 9.742188 -4.378906 9.859375 -4.453125 L 10.03125 -4.578125 L 11.28125 -0.484375 C 10.195312 0.117188 8.960938 0.421875 7.578125 0.421875 C 6.617188 0.421875 5.796875 0.253906 5.109375 -0.078125 C 4.429688 -0.410156 3.914062 -0.851562 3.5625 -1.40625 C 3.207031 -1.96875 2.953125 -2.554688 2.796875 -3.171875 C 2.648438 -3.796875 2.578125 -4.460938 2.578125 -5.171875 L 2.578125 -10.796875 L 0.453125 -10.796875 L 0.453125 -14.65625 Z M 2.578125 -14.65625 "/></g></g></g><g fill="#0052cc" fill-opacity="1"><g transform="translate(285.718696, 364.215345)"><g><path d="M 2.203125 -22.828125 C 2.796875 -23.421875 3.5 -23.71875 4.3125 -23.71875 C 5.132812 -23.71875 5.835938 -23.421875 6.421875 -22.828125 C 7.015625 -22.242188 7.3125 -21.539062 7.3125 -20.71875 C 7.3125 -19.894531 7.015625 -19.1875 6.421875 -18.59375 C 5.835938 -18.007812 5.132812 -17.71875 4.3125 -17.71875 C 3.5 -17.71875 2.796875 -18.007812 2.203125 -18.59375 C 1.609375 -19.1875 1.3125 -19.894531 1.3125 -20.71875 C 1.3125 -21.539062 1.609375 -22.242188 2.203125 -22.828125 Z M 1.71875 -14.65625 L 1.71875 0 L 6.765625 0 L 6.765625 -14.65625 Z M 1.71875 -14.65625 "/></g></g></g><g fill="#0052cc" fill-opacity="1"><g transform="translate(300.238765, 364.215345)"><g><path d="M 3.09375 -1.75 C 1.46875 -3.195312 0.65625 -5.050781 0.65625 -7.3125 C 0.65625 -9.582031 1.503906 -11.445312 3.203125 -12.90625 C 4.898438 -14.363281 6.992188 -15.09375 9.484375 -15.09375 C 11.941406 -15.09375 14.015625 -14.359375 15.703125 -12.890625 C 17.390625 -11.421875 18.234375 -9.5625 18.234375 -7.3125 C 18.234375 -5.0625 17.40625 -3.207031 15.75 -1.75 C 14.101562 -0.300781 12.015625 0.421875 9.484375 0.421875 C 6.859375 0.421875 4.726562 -0.300781 3.09375 -1.75 Z M 7.015625 -9.796875 C 6.359375 -9.148438 6.03125 -8.320312 6.03125 -7.3125 C 6.03125 -6.300781 6.34375 -5.476562 6.96875 -4.84375 C 7.601562 -4.207031 8.429688 -3.890625 9.453125 -3.890625 C 10.453125 -3.890625 11.269531 -4.210938 11.90625 -4.859375 C 12.539062 -5.503906 12.859375 -6.320312 12.859375 -7.3125 C 12.859375 -8.320312 12.53125 -9.148438 11.875 -9.796875 C 11.21875 -10.453125 10.410156 -10.78125 9.453125 -10.78125 C 8.484375 -10.78125 7.671875 -10.453125 7.015625 -9.796875 Z M 7.015625 -9.796875 "/></g></g></g><g fill="#0052cc" fill-opacity="1"><g transform="translate(325.019315, 364.215345)"><g><path d="M 1.71875 0 L 1.71875 -14.65625 L 6.765625 -14.65625 L 6.765625 -13.125 L 6.828125 -13.125 C 8.140625 -14.4375 9.539062 -15.09375 11.03125 -15.09375 C 11.75 -15.09375 12.46875 -14.992188 13.1875 -14.796875 C 13.90625 -14.609375 14.59375 -14.3125 15.25 -13.90625 C 15.90625 -13.507812 16.4375 -12.941406 16.84375 -12.203125 C 17.257812 -11.472656 17.46875 -10.625 17.46875 -9.65625 L 17.46875 0 L 12.40625 0 L 12.40625 -8.28125 C 12.40625 -9.050781 12.160156 -9.71875 11.671875 -10.28125 C 11.191406 -10.851562 10.5625 -11.140625 9.78125 -11.140625 C 9.007812 -11.140625 8.3125 -10.84375 7.6875 -10.25 C 7.070312 -9.664062 6.765625 -9.007812 6.765625 -8.28125 L 6.765625 0 Z M 1.71875 0 "/></g></g></g><path fill="#0052cc" d="M 348.496094 301.828125 L 329.355469 335.117188 L 175.695312 335.117188 L 194.90625 301.828125 L 214.082031 268.609375 L 233.292969 235.320312 L 252.507812 202.105469 L 271.71875 168.816406 L 290.859375 135.527344 L 290.929688 135.527344 L 310.140625 168.816406 L 290.929688 202.105469 L 271.71875 235.320312 L 252.507812 268.609375 L 233.328125 301.828125 L 310.140625 301.828125 L 329.28125 268.609375 L 329.355469 268.609375 Z M 348.496094 301.828125 " fill-opacity="1" fill-rule="nonzero"/><path fill="#0052cc" d="M 271.71875 102.308594 L 252.542969 135.527344 L 252.507812 135.527344 L 252.507812 135.597656 L 233.328125 168.816406 L 233.292969 168.816406 L 214.117188 135.527344 L 233.292969 102.308594 L 214.082031 69.019531 L 194.90625 102.308594 L 175.695312 135.527344 L 156.480469 168.816406 L 175.65625 202.105469 L 175.695312 202.105469 L 194.871094 235.320312 L 194.90625 235.394531 L 175.695312 268.609375 L 156.554688 301.828125 L 156.445312 301.828125 L 156.480469 301.898438 L 137.269531 335.117188 L 22.070312 335.117188 L 41.28125 301.828125 L 60.492188 268.609375 L 79.703125 235.320312 L 118.058594 235.320312 L 98.84375 268.609375 L 79.703125 301.828125 L 118.058594 301.828125 L 137.269531 268.609375 L 156.480469 235.320312 L 137.269531 202.105469 L 118.058594 168.816406 L 137.269531 135.597656 L 137.269531 135.527344 L 156.480469 102.308594 L 156.480469 102.238281 L 175.695312 69.019531 L 194.871094 35.804688 L 214.082031 2.515625 L 233.292969 35.804688 L 252.507812 69.019531 Z M 271.71875 102.308594 " fill-opacity="1" fill-rule="nonzero"/></svg>